<?xml version="1.0" encoding="utf-8"?>

<!DOCTYPE svg PUBLIC "-//W3C//DTD SVG 1.1//EN" "http://www.w3.org/Graphics/SVG/1.1/DTD/svg11.dtd">
<svg version="1.1" id="Layer_1" xmlns="http://www.w3.org/2000/svg" xmlns:xlink="http://www.w3.org/1999/xlink" x="0px" y="0px"
	 viewBox="-508.92 -481.782 1757.92 1671.761" enable-background="new -508.92 -481.782 1757.92 1671.761" xml:space="preserve">
<g>
	<path fill="#6DBEAC" stroke="#6DBEAC" stroke-width="0.2131" d="M441.864-445.294c18.702-1.781,37.73,0.301,56.607,6.92
		c7.527,2.639,14.791,5.87,21.429,10.348c19.414,12.117,33.714,31.441,40.648,53.151c4.251,19.596,3.637,40.693-4.888,59.107
		c-3.069,6.138-7.025,11.844-11.571,16.982c-9.664,10.696-23.02,17.328-37.142,19.739c-25.444,4.344-51.961-3.777-65.321-27.274
		c-3.548-6.239-6.127-13.029-7.616-20.05c-1.605-7.568-1.514-13.117,0.787-20.383c1.186-3.745,2.684-7.394,4.523-10.866
		c3.875-7.316,9.045-14.508,16.787-18.048c8.778-4.014,21.336-3.907,30.328-0.754c7.496,2.629,16.409,9.68,19.425,17.166
		c1.188,2.95,1.476,9.463-2.65,10.736c-2.87,0.885-12.905-12.564-16.046-15.011c-5.229-4.001-12.117-4.297-18.414-4.683
		c-6.57,2.773-13.845,5.592-17.778,11.935c-8.593,12.754-7.207,29.986-0.909,43.421c9.253,18.551,32.123,25.462,51.537,23.302
		c14.527-1.296,27.894-8.98,37.147-20.142c13.345-16.505,15.141-39.352,11.117-59.494c-5.183-25.53-24.689-46.627-48.536-56.357
		c-17.028-8.343-36.419-8.98-54.97-7.684c-17.96,0.159-35.533,5.138-51.492,13.14c-9.707,4.547-19.005,10.003-27.326,16.755
		c-12.799,9.685-24.507,20.892-34.351,33.578c-24.189,29.054-35.783,66.269-42.921,102.801
		c-8.525,42.535-11.367,85.979-12.003,129.286c-0.296,18.187-0.136,36.351,0.273,54.538c-3.524-0.091-7.025-0.091-10.526-0.068
		c-1.023-2.637-2.046-5.274-2.933-7.957c2.114-21.12,0.455-42.353,1.546-63.518c1.66-35.033,3.91-70.179,10.526-104.688
		c3.842-25.916,11.276-51.264,21.552-75.362c8.002-18.823,19.642-35.851,32.964-51.287c15.709-16.414,33.282-31.486,53.538-41.989
		C403.383-437.43,422.448-443.444,441.864-445.294z"/>
	<path fill="#6DBFAB" stroke="#6DBFAB" stroke-width="0.2131" d="M-90.157-390.561c21.415-15.05,47.741-21.824,73.634-22.756
		C32.9-413.999,80.3-389.22,113.173-353.232c29.69,34.191,48.582,76.271,62.699,118.897c15.686,51.31,27.008,104.075,31.395,157.59
		c-3.956-0.477-7.889-0.955-11.822-1.409c-1.205-20.983-4.319-41.784-8.593-62.336c-6.911-41.489-18.119-82.318-33.214-121.579
		c-13.345-32.691-29.849-65.018-54.879-90.366c-18.596-18.141-40.58-33.441-65.427-41.58c-24.098-8.593-50.423-9.412-75.498-5.32
		c-28.758,6.411-56.652,22.825-71.929,48.627c-10.617,18.051-16.027,39.966-11.14,60.653c3.41,15.8,13.299,31.372,28.985,37.169
		c19.051,7.184,42.671,5.979,58.494-7.889c15.118-12.231,17.596-34.873,10.594-52.128c-9.434-23.438-43.399-32.668-62.699-15.8
		c-8.707,6.456-7.025,22.233-19.415,23.916c-3.592-17.027,9.207-32.827,23.893-39.625c18.778-6.866,41.875-3.797,56.561,10.389
		c24.507,22.484,21.574,68.724-8.048,85.615c-26.235,18.846-66.2,13.663-86.342-11.594c-15.959-19.483-17.437-46.945-11.48-70.497
		C-128.486-355.46-111.004-376.193-90.157-390.561z"/>
	<path fill="#EDF1E1" stroke="#EDF1E1" stroke-width="0.2131" d="M885.911-248.317c4.024-0.523,8.093-0.932,12.14-1.523
		C894.141-248.339,890.003-246.225,885.911-248.317z"/>
	<path fill="#F565A2" stroke="#F565A2" stroke-width="0.4845" d="M772.266-214.603c14.55-0.841,28.713-5.047,43.353-5.024
		c21.142-0.25,42.376-0.477,63.472,1.341c15.55,2.796,31.35,4.615,46.377,9.707c15.186,5.092,31.122,8.389,45.24,16.277
		c15.55,6.684,29.713,16.027,44.808,23.643c9.707,4.956,16.164,14.14,24.78,20.574c11.003,8.571,22.461,16.823,30.94,28.099
		c11.458,15.027,26.076,28.076,33.668,45.717c4.661,10.685,12.89,19.301,17.482,30.008c5.774,12.776,9.616,26.303,15.754,38.92
		c5.251,10.798,8.525,22.438,10.935,34.169c5.001,23.984,11.026,48.036,10.753,72.702c-0.091,19.71,0.728,39.443,0.091,59.153
		c-1.046,13.731-3.41,27.326-4.706,41.034c-3.546,21.256-10.276,41.807-17.914,61.904c-5.638,20.71-17.528,38.715-27.167,57.63
		c-11.321,21.029-27.417,38.875-43.217,56.561c-20.051,22.893-46.081,39.102-70.088,57.38
		c-10.662,8.411-23.893,12.299-35.715,18.687c-19.164,10.253-39.784,17.414-60.471,23.87c-10.73,3.683-21.506,7.32-32.691,9.344
		c0.25,1.887,0.5,3.796,0.796,5.706c12.003,1.819,22.188,8.662,33.532,12.481c-0.205,0.727-0.25,1.5-0.182,2.273
		c21.279,12.39,41.125,27.121,59.244,43.785c8.525,8.525,13.913,19.46,20.869,29.19c16.277,20.869,24.689,46.627,30.008,72.247
		c8.025,25.325,7.297,52.196,6.57,78.431c-1.432,17.323-3.819,35.305-12.503,50.673c-8.934,15.618-14.663,33.441-28.167,46.013
		c-16.55,19.937-35.942,38.192-59.699,49.105l-6.346,4.794l-6.681,3.504c-17.05,9.798-36.147,15.959-54.856,21.779
		c-15.232,1.614-29.986,5.32-44.763,9.139c-23.734,1.955-47.604,0.659-71.384,0.978c1.046-1.159,2.114-2.296,3.183-3.433
		c-19.71,0.455-39.147-3.547-58.221-8.002c-16.527-3.91-31.622-12.322-48.309-15.641c-16.573-10.844-32.327-23.006-46.627-36.715
		c-38.693-30.349-70.338-68.587-98.823-108.439c8.048,2.842,15.777,6.547,23.097,10.98c15.482,9.389,32.759,15.3,49.923,20.869
		c43.012,13.754,89.48,17.209,133.924,8.821c43.49-9.571,86.001-30.031,115.237-64.427c17.437-21.483,29.781-48.218,30.372-76.226
		c1.159-29.099-11.162-56.72-25.53-81.318c-18.687-26.78-46.808-46.49-77.794-56.402c-10.003-2.728-20.142-5.07-29.667-9.253
		c35.669-18.551,71.02-39.716,97.686-70.429c18.528-19.778,32.509-43.444,42.353-68.633c11.776-35.237,18.164-73.043,12.367-110.076
		c-4.16-24.439-9.139-49.105-19.869-71.634c-8.275-20.597-21.324-38.784-34.782-56.266c-9.889-12.822-22.438-23.234-35.396-32.805
		c-42.353-32.918-98.096-46.49-151.088-40.466c-27.69,1.205-54.402,9.844-79.795,20.438c-14.322,6.229-27.326,15.072-41.944,20.597
		c-7.479-28.508-18.869-56.607-37.329-79.818c8.821-14.299,17.255-29.008,28.485-41.603c16.8-18.801,31.372-39.67,50.287-56.516
		c23.666-20.483,47.286-41.262,73.521-58.471c15.845-10.617,31.85-21.37,49.878-28.031c16.391-7.775,32.282-16.868,49.764-22.143
		C730.186-203.759,750.351-213.079,772.266-214.603 M682.264-129.511c-30.44,5.115-55.106,32.305-58.471,62.768
		c-5.57,36.919,21.733,74.794,58.494,81.023c26.985,5.979,56.629-5.365,72.884-27.712c15.095-19.278,18.755-46.331,10.389-69.224
		C754.602-116.007,716.455-137.445,682.264-129.511 M884.479-127.124c-27.167,4.706-52.083,22.688-63.381,48.082
		c-15.777,31.509-8.275,72.316,16.664,96.936c22.415,23.552,59.085,31.645,89.502,20.392c31.054-10.617,53.992-40.42,56.743-73.066
		c2.683-26.689-8.661-53.992-28.485-71.861C936.312-123.509,909.827-131.67,884.479-127.124 M1002.694,41.105
		c-27.781,3.41-51.992,23.779-61.586,49.832c-11.299,29.44-1.637,65.132,22.688,85.115c21.006,17.937,51.946,23.052,77.567,12.663
		c28.735-10.844,49.423-40.443,48.741-71.293c0.477-24.029-11.753-47.559-30.963-61.767
		C1043.183,43.674,1022.427,38.445,1002.694,41.105 M968.571,227.316c-18.437,3.592-32.964,18.346-39.102,35.715
		c-5.729,19.278-0.455,41.716,14.982,55.106c20.619,20.256,58.334,18.164,76.203-4.774c17.619-19.187,16.436-51.378-1.273-70.111
		C1007.082,229.09,986.712,223.111,968.571,227.316 M886.821,366.128c-22.779,3.91-35.146,32.145-24.007,51.992
		c10.003,20.119,39.943,25.007,56.038,9.525c12.072-10.639,14.777-29.508,7.252-43.512
		C918.943,370.175,901.939,363.173,886.821,366.128 M873.09,533.834c-19.005,4.888-32.282,25.689-28.144,44.99
		c2.683,18.141,20.233,33.146,38.806,31.645c20.801,1.273,39.897-17.459,39.034-38.329
		C924.104,547.065,897.051,526.082,873.09,533.834 M900.552,643.933c-8.821,1.955-16.982,6.297-23.802,12.185
		c-22.756,18.051-28.099,53.697-11.594,77.635c16.118,27.371,55.902,34.964,81.864,17.573c16.436-10.594,27.803-29.849,27.076-49.65
		c0.182-17.528-7.616-35.237-21.711-45.945C938.267,643.842,918.421,639.364,900.552,643.933 M818.597,779.767
		c-22.506,5.024-39.738,28.44-36.351,51.583c1.091,27.144,29.667,48.513,56.016,43.398c12.413-1.932,23.961-8.798,31.35-18.982
		c9.435-11.89,11.026-28.372,7.548-42.739C870.384,788.792,842.945,773.015,818.597,779.767 M693.812,812.253
		c-19.324,3.296-31.577,26.257-23.984,44.217c5.092,14.413,20.824,23.87,35.987,21.506c21.802-2.046,35.942-29.349,25.053-48.423
		C724.321,816.004,708.384,808.797,693.812,812.253z"/>
	<path fill="#FDFEFE" stroke="#FDFEFE" stroke-width="0.2131" d="M682.264-129.511c34.191-7.934,72.338,13.504,83.296,46.854
		c8.366,22.893,4.706,49.946-10.389,69.224c-16.255,22.347-45.899,33.691-72.884,27.712c-36.76-6.229-64.063-44.103-58.494-81.023
		C627.157-97.206,651.823-124.396,682.264-129.511z"/>
	<path fill="#FEFEFF" stroke="#FEFEFF" stroke-width="0.2131" d="M884.479-127.124c25.348-4.547,51.833,3.615,71.043,20.483
		c19.824,17.869,31.168,45.172,28.485,71.861c-2.751,32.645-25.689,62.449-56.743,73.066c-30.418,11.253-67.087,3.16-89.502-20.392
		c-24.939-24.621-32.441-65.427-16.664-96.936C832.396-104.435,857.313-122.418,884.479-127.124z"/>
	<path fill="#FFE41B" stroke="#FFE41B" stroke-width="0.4845" d="M207.267-81.293c19.665-6.297,40.307-6.502,60.744-6.456
		c3.501-0.023,7.002-0.023,10.526,0.068c18.846-0.591,36.988,4.66,54.97,9.525c27.326,6.866,51.764,21.551,74.862,37.215
		c6.115,5.115,12.163,10.321,19.005,14.481c10.207,10.798,21.142,21.165,28.985,33.941c-0.318,15.8,9.48,28.622,14.868,42.739
		c14.072,40.307,17.05,85.342,3.183,126.126c-15.845,52.015-55.447,95.504-104.597,118.192
		c-25.28,10.298-51.833,18.733-79.363,19.369c-69.77,4.615-141.017-25.098-186.666-78.09c-6.729-8.252-13.117-16.8-20.415-24.598
		c-1.341,0.477-4.024,1.455-5.365,1.932c-10.685-20.847-19.505-42.921-22.916-66.223c-1.955-14.572-2.637-29.281-2.387-43.944
		c0.114-17.664,6.275-34.487,7.366-52.015c5.843-9.412,10.526-19.46,15.232-29.463c1.955-3.797,4.069-7.502,6.297-11.117
		c6.343-9.685,12.913-19.255,20.619-27.917c1.887-2.001,3.865-3.956,5.843-5.888c5.365-4.024,10.094-8.798,14.254-14.049
		c8.571-6.07,16.914-12.481,25.416-18.642C166.597-66.516,185.852-77.155,207.267-81.293 M129.814,40.992
		c-15.345,5.843-26.689,21.256-27.144,37.783c-1.705,22.438,17.369,43.717,39.898,44.285c21.87,2.114,43.08-15.8,44.831-37.647
		c2.319-18.073-8.571-36.738-25.325-43.785C151.888,37.559,140.135,37.286,129.814,40.992 M309.364,75.183
		c-20.801,5.183-34.896,28.053-30.281,48.968c2.342,13.39,11.685,25.143,24.075,30.622c14.663,7.002,33.328,4.456,45.467-6.343
		c13.731-11.412,18.346-31.986,11.503-48.354C352.717,80.548,329.392,68.909,309.364,75.183 M158.822,166.913
		c-1.341,22.461,12.731,44.262,33.214,53.128c20.392,9.003,45.967,11.185,65.337-1.455c11.412-7.434,21.37-18.573,24.257-32.191
		c-1.705-0.205-5.115-0.614-6.843-0.818c-7.002,16.209-21.006,30.258-39.034,32.941c-20.438,2.683-43.444-2.683-57.607-18.414
		c-8.366-8.798-11.253-21.074-11.981-32.85C163.709,167.231,161.254,167.141,158.822,166.913z"/>
	<path fill="#F1E581" stroke="#F1E581" stroke-width="0.2131" d="M108.057-23.413c3.615-5.729,8.32-10.685,14.254-14.049
		C118.151-32.211,113.423-27.437,108.057-23.413z"/>
	<path fill="#F7B504" stroke="#F7B504" stroke-width="0.2131" d="M456.359,7.482l1,1.432c18.46,23.211,29.849,51.31,37.329,79.818
		c4.615,27.871,6.206,56.607,0.136,84.387c-3.455,25.985-15.231,49.9-29.395,71.611c-17.869,25.689-40.602,48.809-68.496,63.495
		c-13.299,7.911-28.144,12.594-42.626,17.778c-10.48,3.296-21.256,5.479-32.032,7.502c-16.505,3.16-33.396,2.137-50.105,2.842
		c-3.819,36.01-4.638,72.247-6.365,108.394c-0.864,61.085,4.319,122.125,12.708,182.597c13.549,88.366,39.125,176.117,85.16,253.298
		c2.728,6.593,10.685,5.024,16.232,3.751c15.368-3.956,29.395-12.072,41.966-21.642c9.866-7.661,18.232-17.05,28.099-24.689
		c-6.093,22.62-20.597,42.83-40.125,55.811c-8.752,5.774-18.937,8.707-28.826,11.89c5.251,11.753,13.731,21.551,21.233,31.895
		c3.387,4.274,6.979,9.776,13.072,9.935c16.141,1.319,31.827-4.501,46.217-11.208c26.394-13.049,47.172-34.441,67.883-54.856
		c-8.571,29.713-27.008,57.198-52.56,74.885c-12.549,9.003-27.417,13.595-41.944,18.187c11.23,12.549,23.393,24.257,35.805,35.601
		c7.116,6.82,17.619,4.228,26.235,2.773c35.26-6.775,65.246-28.349,91.48-51.787c11.185-9.412,19.733-21.506,31.213-30.6
		c-3.978,16.959-12.276,32.464-21.37,47.195c-12.276,19.687-28.462,37.01-47.786,49.923c-11.14,7.32-24.007,11.276-35.692,17.527
		c11.799,10.89,26.007,18.596,40.057,26.167c25.734,13.094,54.197,22.779,83.432,21.256c34.601-1.205,68.178-20.665,85.774-50.582
		c3.797-6.365,8.048-12.481,12.844-18.141c0.182,5.161,0.159,10.367-0.273,15.527c-1.887,7.025-3.956,14.004-6.638,20.779
		c-5.593,10.594-13.299,19.892-21.665,28.417c-4.547,4.569-9.139,9.139-14.186,13.185c-8.912,5.274-18.232,9.844-27.621,14.254
		c-8.73,1.796-17.482,3.387-26.144,5.479c-8.411,0.978-16.891,0.955-25.325,0.364c-12.981-2.137-25.871-4.979-38.42-8.911
		c-17.255-5.547-32.873-14.868-48.468-23.87c-21.12-12.367-39.556-28.576-58.585-43.808c-19.096-15.663-35.715-34.009-52.719-51.833
		c-10.98-11.89-20.483-25.052-31.895-36.556c-10.071-12.367-16.277-27.349-26.212-39.852c-7.116-12.253-15.527-23.757-21.711-36.533
		c-6.57-14.845-15.004-28.894-19.733-44.513c-2.751-7.502-6.32-14.663-9.162-22.12c-10.73-31.395-24.189-62.267-27.781-95.572
		c-0.796,0.932-1.569,1.864-2.342,2.819c-5.138-39.125-12.935-77.976-16.391-117.306c-0.75,3.023-1.478,6.047-2.205,9.093
		c1.046-17.482-2.41-34.782-2.433-52.242c-2.751-29.463-1.887-59.085-2.046-88.638c0.227-23.529-0.591-47.127,2.114-70.542
		c0.796-23.029,4.82-46.172,1.25-69.156c-28.803-0.023-56.675-10.298-81.909-23.529c-36.351-19.142-68.337-46.877-90.889-81.318
		c-2.683-4.729-5.092-9.571-7.525-14.39c1.341-0.477,4.024-1.455,5.365-1.932c7.297,7.798,13.686,16.345,20.415,24.598
		c45.649,52.992,116.896,82.705,186.666,78.09c27.53-0.637,54.083-9.071,79.363-19.369c49.15-22.688,88.752-66.178,104.597-118.192
		c13.867-40.784,10.889-85.819-3.183-126.126C465.839,36.104,456.041,23.282,456.359,7.482z"/>
	<path fill="#F565A2" stroke="#F565A2" stroke-width="0.4845" d="M-237.471,47.994c17.71-6.115,35.692-12.572,54.697-12.435
		c15.709-0.341,31.463,0.568,47.127-0.887c21.029,3.819,42.626,4.82,63.018,11.617c24.325,6.57,47.922,15.8,70.201,27.599
		c12.435,7.275,25.189,14.254,39.102,18.301c-0.659,1.728,0.659-1.728,0,0l16.027,10.798c-0.25,14.663,0.432,29.372,2.387,43.944
		c-15.391,0.432-30.69-3.183-46.081-1.478c-12.935,1.319-25.939,3.16-38.42,6.934c-32.486,10.708-59.608,34.828-76.317,64.427
		c-19.255,37.01-22.87,80.932-13.163,121.238c12.14,47.172,39.761,89.502,75.839,121.92
		c65.109,60.039,141.562,106.598,221.107,144.95c3.501,1.773,6.934,3.637,10.412,5.502c-10.435,9.48-21.142,18.914-29.213,30.599
		c-24.029,33.896-32.236,77.408-26.553,118.215c3.865,25.507,16.141,49.809,34.282,68.155
		c18.892,17.073,42.671,30.804,68.701,31.623c19.346,0.796,39.42,0.568,57.607-6.843c9.093-3.524,16.777-9.73,24.029-16.118
		c4.729,15.618,13.163,29.668,19.733,44.513c6.184,12.776,14.595,24.279,21.711,36.533c-12.117,7.684-23.757,16.118-34.828,25.257
		c-16.641,13.322-36.647,21.074-55.47,30.668c-17.05,8.48-36.101,11.526-54.674,14.8c-9.207,2.001-18.596,3.274-28.031,3.319
		c-15.823,0-31.85,0.841-47.422-2.592c-10.139-2.319-20.688-2.91-30.509-6.502c-21.847-7.434-40.693-21.142-59.38-34.305
		c-5.456-3.706-8.752-9.548-12.617-14.709c-4.91-6.911-11.367-12.595-16.05-19.665C3.301,886.001-7.839,854.56-6.156,822.21
		c-1.614-31.509,3.546-62.972,13.572-92.799c8.434-20.369,20.619-38.988,33.759-56.607c9.025-12.117,21.37-21.029,32.555-30.94
		c4.456-3.797,7.184-9.025,9.935-14.072c-12.14-0.318-24.416-0.023-36.26-2.933c-6.115-1.432-12.322-2.296-18.551-2.773
		c-16.732-0.932-31.6-9.639-47.968-12.435c-22.006-3.433-42.535-12.299-63.631-19.028c-21.415-6.934-41.58-17.028-61.676-27.053
		c-9.548-4.82-19.756-8.411-28.644-14.481c-16.709-11.412-33.669-22.438-50.537-33.646c-22.915-16.846-44.376-35.737-63.563-56.766
		c-25.939-23.416-45.013-53.242-61.654-83.66c-6.866-16.937-15.118-33.418-19.528-51.219c-2.842-10.389-7.707-20.278-8.548-31.122
		c-1.478-19.005-2.683-38.102-1.591-57.152c2.705-25.734,9.366-50.832,16.755-75.544c6.115-11.594,12.981-22.87,19.71-34.146
		c14.413-17.209,28.644-35.283,47.718-47.627C-276.414,66.385-258.886,52.586-237.471,47.994 M-163.45,75.206
		c-25.734,2.933-45.99,27.94-44.694,53.651c0.364,25.553,21.597,48.582,46.99,51.219c25.075,3.456,51.196-13.777,57.311-38.443
		c6.32-21.983-3.251-47.513-22.87-59.448C-137.352,74.774-150.947,74.069-163.45,75.206 M-265.752,197.649
		c-20.506,3.978-37.51,18.551-48.491,35.805c-13.186,22.279-13.845,51.423-1.66,74.271c9.071,17.027,24.393,30.963,42.921,36.874
		c23.37,8.73,50.81,4.251,70.815-10.457c27.599-19.915,38.988-59.335,25.621-90.753
		C-189.776,208.993-230.037,188.169-265.752,197.649 M-199.915,381.951c-22.484,6.706-38.215,30.463-36.01,53.788
		c0.477,27.485,26.144,51.014,53.47,49.832c27.78,0.637,52.378-24.53,52.196-52.083c1.046-23.575-16.095-46.445-38.965-52.083
		C-179.273,379.154-189.958,379.2-199.915,381.951 M-81.518,491.64c-18.187,4.82-30.804,25.416-25.484,43.717
		c4.183,18.369,24.302,30.6,42.557,25.985c19.733-3.683,33.146-26.257,26.576-45.308C-42.894,497.847-63.4,486.548-81.518,491.64
		 M23.102,554.931c-14.572,6.002-18.119,26.507-8.184,38.102c7.207,9.298,21.165,10.253,31.168,5.297
		c11.23-6.661,15.368-22.484,8.593-33.737C48.95,553.453,34.082,550.089,23.102,554.931 M79.686,683.717
		c-9.434,2.137-16.937,10.526-17.71,20.233c-2.523,13.89,9.662,28.212,23.779,27.758c14.231,0.636,27.167-13.39,24.757-27.576
		C109.194,689.832,93.326,679.534,79.686,683.717 M57.157,775.402c-12.231,4.115-21.051,16.255-22.87,28.804
		c-2.819,17.778,9.775,35.851,27.303,39.693c22.484,6.525,46.604-14.595,43.944-37.579
		C104.693,783.358,78.39,766.581,57.157,775.402 M122.857,859.448c-21.301,5.547-37.215,27.121-35.51,49.196
		c0.864,23.916,22.097,45.126,46.149,45.285c17.664,0.932,35.26-8.707,43.876-24.166c6.343-10.071,6.797-22.552,5.138-34.01
		c-2.137-12.754-11.049-23.438-21.438-30.599C150.092,857.402,135.611,856.515,122.857,859.448 M241.436,880.431
		c-20.415,3.41-31.532,29.895-19.665,46.831c8.048,14.072,27.485,17.937,41.421,10.821c10.844-6.252,17.437-19.164,15.436-31.645
		C276.946,888.979,258.372,876.316,241.436,880.431z"/>
	<path fill="#692911" stroke="#692911" stroke-width="0.4845" d="M129.814,40.992c10.321-3.706,22.074-3.433,32.259,0.637
		c16.755,7.047,27.644,25.712,25.325,43.785c-1.751,21.847-22.961,39.761-44.831,37.647c-22.529-0.568-41.603-21.847-39.898-44.285
		C103.124,62.248,114.468,46.834,129.814,40.992 M125.494,59.179c-8.639,4.047-9.594,17.346-1.614,22.597
		c8.411,6.866,22.574-1.114,20.847-11.912C144.59,60.633,133.383,54.495,125.494,59.179z"/>
	<path fill="#FEFEFE" stroke="#FEFEFE" stroke-width="0.2131" d="M1002.694,41.105c19.733-2.66,40.489,2.569,56.447,14.55
		c19.21,14.209,31.441,37.738,30.963,61.767c0.682,30.85-20.006,60.449-48.741,71.293c-25.621,10.389-56.561,5.274-77.567-12.663
		c-24.325-19.983-33.987-55.675-22.688-85.115C950.702,64.885,974.914,44.515,1002.694,41.105z"/>
	<path fill="#A7CD34" stroke="#A7CD34" stroke-width="0.2131" d="M358.764,917.1c-12.117,7.684-23.757,16.118-34.828,25.257
		c-16.641,13.322-36.647,21.074-55.47,30.668c-17.05,8.48-36.101,11.526-54.674,14.8c-9.207,2.001-18.596,3.274-28.031,3.319
		c-15.823,0-31.85,0.841-47.422-2.592c-10.139-2.319-20.688-2.91-30.509-6.502c-21.847-7.434-40.693-21.142-59.38-34.305
		c-5.456-3.706-8.753-9.548-12.617-14.709c-4.911-6.911-11.367-12.595-16.05-19.665C3.301,886.001-7.838,854.56-6.156,822.21
		c-1.614-31.509,3.546-62.972,13.572-92.799c8.434-20.369,20.62-38.988,33.759-56.607c9.025-12.117,21.37-21.029,32.554-30.94
		c4.456-3.797,7.184-9.025,9.935-14.072c-12.14-0.318-24.416-0.023-36.26-2.933c-6.115-1.432-12.322-2.296-18.551-2.774
		c-16.732-0.932-31.6-9.639-47.968-12.435c-22.006-3.433-42.535-12.299-63.631-19.028c-21.415-6.934-41.58-17.028-61.676-27.053
		c-9.548-4.82-19.755-8.411-28.644-14.481c-16.709-11.412-33.669-22.438-50.537-33.646c-22.916-16.846-44.376-35.737-63.563-56.766
		c-25.939-23.416-45.013-53.242-61.654-83.66c-6.866-16.937-15.118-33.418-19.528-51.219c-2.842-10.389-7.707-20.278-8.548-31.122
		c-1.478-19.005-2.683-38.101-1.591-57.152c2.705-25.734,9.366-50.833,16.755-75.544c6.115-11.594,12.981-22.87,19.71-34.146
		c14.413-17.209,28.644-35.283,47.718-47.627c17.891-11.822,35.419-25.621,56.834-30.213c17.709-6.115,35.692-12.572,54.697-12.435
		c15.709-0.341,31.463,0.568,47.127-0.887c21.029,3.819,42.626,4.82,63.018,11.617c24.325,6.57,47.922,15.8,70.201,27.599
		c12.435,7.275,25.189,14.254,39.102,18.301l16.027,10.798c0.114-17.664,6.275-34.487,7.366-52.015
		c-3.16-1.91-6.411-3.637-9.707-5.251c-7.889-5.001-17.55-2.842-26.098-1.091c-0.909,0.182-2.751,0.546-3.683,0.727
		c-3.797,1.432-7.57,2.955-11.321,4.479C6.62,43.651,4.142,37.422,1.732,31.148c-4.706-7.297-11.344-13.004-17.869-18.596
		c-8.957-2.842-18.346-5.297-27.849-4.297c-9.252,0.955-16.8,7.616-26.03,8.616C-77.267,9.551-82.223-0.202-91.498-5.34
		c-10.935-6.093-24.325-9.435-36.51-5.138C-139.33-8.227-147.423,0.48-157.403,5.459c-9.321-4.729-16.141-14.618-27.235-15.55
		c-10.98-1.228-22.961-1.773-32.964,3.751c-6.684,3.706-12.64,8.639-17.891,14.186c-3.319,4.501-6.593,9.048-9.821,13.64
		c-8.98-3.887-18.073-8.57-28.099-8.639c-10.003-0.068-19.028,4.865-27.78,9.116c-5.024,5.956-10.276,11.799-14.572,18.323
		c-1.751,3.001-3.365,6.07-4.797,9.23c-0.409,2.614-0.727,5.274-0.978,7.911c-10.617,0.568-20.938,3.751-30.145,9.048
		c-5.638,2.728-10.389,6.865-14.754,11.299c-6.07,6.093-11.344,13.254-13.617,21.665c-4.138,11.89-0.909,24.393,1.569,36.237
		c-15.3,3.66-28.895,13.618-35.715,27.962c-2.342,6.593-3.819,13.458-4.501,20.438c0.114,6.865,1.341,13.731,3.751,20.187
		c3.228,5.365,6.934,10.435,10.48,15.595c-2.114,2.069-4.228,4.138-6.297,6.252c-12.026,11.185-19.028,27.371-17.482,43.899
		c2.66,16.073,13.208,29.781,27.076,37.942c-6.183,12.776-12.708,26.485-10.116,41.125c2.296,20.756,19.392,37.124,39.147,42.125
		c-3.16,15.413-4.979,32.441,3.66,46.558c8.252,16.982,27.69,25.325,45.899,24.666c-0.523,8.57-1.273,17.414,1.296,25.757
		c4.683,14.8,16.573,26.985,31.009,32.532c9.048,2.546,18.573,1.432,27.849,1.773c3.205,16.027,8.502,33.623,23.529,42.466
		c13.663,10.367,31.623,8.434,47.491,5.82c4.251,15.845,13.504,31.304,29.349,37.692c14.391,7.934,31.304,4.388,45.808-1.228
		c5.32,9.684,10.662,20.119,20.233,26.348c8.275,5.161,17.619,9.162,27.462,9.866c11.276,0.955,21.21-5.365,31.282-9.366
		c6.82,8.866,13.527,18.46,23.62,23.961c8.411,5.07,18.482,5.388,27.962,6.729c0,3.319,0.046,6.638,0.091,9.957
		c-22.37,0.955-43.399,16.868-48.082,39.125c-4.251,14.345,2.024,28.463,7.684,41.375c-5.252,4.047-10.639,7.911-15.527,12.39
		c-12.14,11.208-15.823,29.235-13.004,45.035c2.842,13.39,13.117,23.097,22.506,32.282c-5.865,9.503-12.23,19.301-13.413,30.69
		c-2.205,14.277,4.138,28.667,13.572,39.147c8.025,9.071,19.96,12.822,31.168,16.345c-0.205,10.708-1.228,21.802,2.319,32.168
		c4.933,14.777,17.687,26.303,32.395,30.963c11.162,2.091,22.643,0.705,33.85-0.455c5.456,17.596,17.982,34.51,36.692,38.965
		c17.755,5.365,37.079-1.523,49.809-14.413c7.707,7.207,15.459,14.936,25.484,18.824c13.072,5.593,28.508,4.115,40.83-2.728
		c10.639-4.91,16.982-15.209,23.12-24.643c19.346,14.072,49.127,13.163,65.859-4.683c8.048-7.366,10.935-18.164,14.527-28.031
		c11.208,0.705,22.734,2.114,33.714-1.114c10.73-3.456,19.233-11.23,27.076-19.028C374.905,944.585,368.698,929.604,358.764,917.1z"
		/>
	<path fill="#F9FAF6" stroke="#F9FAF6" stroke-width="0.2131" d="M125.494,59.179c7.889-4.683,19.096,1.455,19.233,10.685
		c1.728,10.798-12.435,18.778-20.847,11.912C115.901,76.524,116.855,63.225,125.494,59.179z"/>
	<path fill="#FCFDFD" stroke="#FCFDFD" stroke-width="0.2131" d="M-163.45,75.206c12.504-1.137,26.098-0.432,36.738,6.979
		c19.619,11.935,29.19,37.465,22.87,59.448c-6.115,24.666-32.236,41.898-57.311,38.443c-25.393-2.637-46.627-25.666-46.99-51.219
		C-209.44,103.145-189.185,78.138-163.45,75.206z"/>
	<path fill="#692911" stroke="#692911" stroke-width="0.4845" d="M309.364,75.183c20.028-6.275,43.353,5.365,50.764,24.893
		c6.843,16.368,2.228,36.942-11.503,48.354c-12.14,10.798-30.804,13.345-45.467,6.343c-12.39-5.479-21.733-17.232-24.075-30.622
		C274.468,103.236,288.563,80.366,309.364,75.183 M302.907,93.779c-8.002,2.387-11.64,13.276-6.547,19.96
		c5.115,9.184,21.37,6.956,23.711-3.478C323.595,100.372,312.66,89.824,302.907,93.779z"/>
	<path fill="#FCFCF5" stroke="#FCFCF5" stroke-width="0.2131" d="M1208.729,80.866c4.069,23.052,1.978,46.627,2.228,69.906
		c-1.069-0.364-3.16-1.068-4.206-1.409c-3.41-9.366-9.776-17.164-16.777-24.075C1202.614,114.194,1209.797,97.758,1208.729,80.866z"
		/>
	<path fill="#FAFAF6" stroke="#FAFAF6" stroke-width="0.2131" d="M302.907,93.779c9.753-3.956,20.688,6.593,17.164,16.482
		c-2.342,10.435-18.596,12.663-23.711,3.478C291.268,107.056,294.905,96.166,302.907,93.779z"/>
	<path fill="#6CBFAD" stroke="#6CBFAD" stroke-width="0.2131" d="M547.749,172.528c22.825-17.596,50.355-29.008,78.954-32.418
		c12.958-0.477,25.984-0.909,38.92,0.296c29.622,4.933,58.357,19.073,78.158,41.989c11.662,12.822,19.255,28.644,25.962,44.444
		c6.502,15.436,8.389,32.214,11.026,48.627c3.046,16.868-1.25,33.805-4.706,50.264c-2.478,12.413-9.003,23.484-16.414,33.555
		c-13.572,18.983-34.851,30.827-56.243,38.965c-12.572,1.932-25.303,3.228-37.965,4.433c-24.143-2.592-50.128-11.662-64.336-32.577
		c-5.638-7.866-13.095-15.413-13.958-25.553c-1.432-15.209-1.364-32.077,8.48-44.717c6.411-7.911,14.231-16.232,24.711-18.096
		c5.342-1.046,10.457-2.887,15.436-5.115c-4.115-1.887-8.366-3.387-12.708-4.592c-11.39,0.068-22.893-0.386-34.146,1.364
		c-25.712,8.321-51.128,20.847-68.997,41.693c-5.956,7.616-13.299,14.277-17.596,23.075c-11.799,22.779-21.392,46.695-29.031,71.156
		c-3.274,22.756-10.071,44.808-13.367,67.587c-0.909,10.548-0.705,21.165-1.569,31.736c-2.887-0.091-5.774-0.159-8.639-0.227
		c-1.523-9.935-4.751-19.551-5.956-29.531c-2.342-22.665-5.524-45.331-4.388-68.178c-2.342-57.243,13.572-114.305,41.398-164.091
		c2.705-5.433,7.161-9.616,11.867-13.276C503.805,207.72,525.697,188.737,547.749,172.528z"/>
	<path fill="#BE5B9E" stroke="#BE5B9E" stroke-width="0.4845" d="M-29.413,152.386c12.481-3.774,25.484-5.615,38.42-6.934
		c15.391-1.705,30.69,1.91,46.081,1.478c3.41,23.302,12.231,45.376,22.916,66.223c2.432,4.82,4.842,9.662,7.525,14.39
		c-12.049-2.251-23.825-6.32-36.192-6.57c-20.892-0.318-43.444-2.023-61.995,9.548c-24.302,12.367-43.012,34.873-50.4,61.154
		c-8.821,25.689-3.046,54.083,8.116,78.09c11.412,17.937,28.372,34.51,49.991,38.534c13.481,2.137,27.303,1.796,40.807,0.182
		c13.868-1.273,23.984-12.003,33.237-21.301c14.095-14.936,15.095-36.715,15.686-56.107c15.027,7.207,28.804,16.868,40.693,28.576
		c9.162,9.071,18.778,18.028,25.234,29.372c11.89,20.688,23.779,41.739,30.19,64.882c4.297,16.777,6.57,34.009,8.98,51.151
		c2.182,14.936,0.864,30.077,1.887,45.104c4.251-4.547,7.457-10.116,7.502-16.505c1.091-16.027,3.751-31.85,5.888-47.741
		c4.592-38.443,2.228-77.499-5.911-115.305c-4.865-21.347-9.889-43.626-22.825-61.744c25.234,13.231,53.106,23.507,81.909,23.529
		c3.569,22.984-0.455,46.127-1.25,69.156c-2.705,23.416-1.887,47.013-2.114,70.542c0.159,29.554-0.705,59.176,2.046,88.638
		c0.023,17.459,3.478,34.76,2.433,52.242c0.727-3.046,1.455-6.07,2.205-9.093c3.456,39.329,11.253,78.181,16.391,117.306
		c0.773-0.955,1.546-1.887,2.342-2.819c3.592,33.305,17.05,64.177,27.781,95.572c2.842,7.457,6.411,14.618,9.162,22.12
		c-7.252,6.388-14.936,12.595-24.029,16.118c-18.187,7.411-38.261,7.638-57.607,6.843c-26.03-0.818-49.809-14.55-68.701-31.623
		c-18.141-18.346-30.418-42.648-34.282-68.155c-5.683-40.807,2.523-84.319,26.553-118.215c8.07-11.685,18.778-21.12,29.213-30.599
		c-3.478-1.864-6.911-3.728-10.412-5.502c-79.545-38.352-155.998-84.91-221.107-144.95c-36.078-32.418-63.7-74.748-75.839-121.92
		c-9.707-40.307-6.093-84.228,13.163-121.238C-89.02,187.214-61.899,163.094-29.413,152.386 M183.465,659.005
		c8.73,6.911,18.073,13.436,24.439,22.802c9.093,13.14,18.119,26.598,24.098,41.512c3.842,10.594,5.456,23.393-0.887,33.373
		c-9.684-9.275-18.755-22.574-33.873-21.733c-15.868-2.16-27.417,12.572-31.031,26.371c-1.841,8.866-3.91,18.937,0.682,27.349
		c6.934,13.549,16.095,27.508,30.941,33.146c11.299,2.819,23.484,2.069,34.691-0.932c24.348-8.798,40.148-34.737,40.375-60.153
		c-0.773-15.482-5.911-30.554-13.731-43.876c-11.731-23.393-31.895-41.671-54.402-54.492
		C198.401,658.369,190.603,659.369,183.465,659.005z"/>
	<path fill="#612D08" stroke="#612D08" stroke-width="0.2131" d="M158.822,166.913c2.433,0.227,4.888,0.318,7.343,0.341
		c0.727,11.776,3.615,24.052,11.981,32.85c14.163,15.732,37.169,21.097,57.607,18.414c18.028-2.683,32.032-16.732,39.034-32.941
		c1.728,0.205,5.138,0.614,6.843,0.818c-2.887,13.617-12.845,24.757-24.257,32.191c-19.369,12.64-44.944,10.457-65.337,1.455
		C171.553,211.176,157.48,189.374,158.822,166.913z"/>
	<path fill="#FDFEFE" stroke="#FDFEFE" stroke-width="0.2131" d="M-265.752,197.649c35.715-9.48,75.976,11.344,89.207,45.74
		c13.367,31.418,1.978,70.838-25.621,90.753c-20.006,14.709-47.445,19.187-70.815,10.457c-18.528-5.911-33.85-19.846-42.921-36.874
		c-12.185-22.847-11.526-51.992,1.66-74.271C-303.262,216.2-286.257,201.627-265.752,197.649z"/>
	<path fill="#6CBFAD" stroke="#6CBFAD" stroke-width="0.2131" d="M-12.658,230.522c18.551-11.571,41.102-9.866,61.995-9.548
		c12.367,0.25,24.143,4.319,36.192,6.57c22.552,34.441,54.538,62.176,90.889,81.318c12.935,18.119,17.96,40.398,22.825,61.744
		c8.139,37.806,10.503,76.862,5.911,115.305c-2.137,15.891-4.797,31.713-5.888,47.741c-0.046,6.388-3.251,11.958-7.502,16.505
		c-1.023-15.027,0.296-30.167-1.887-45.104c-2.41-17.141-4.683-34.373-8.98-51.151c-6.411-23.143-18.301-44.194-30.19-64.882
		c-6.456-11.344-16.073-20.301-25.234-29.372c-11.89-11.708-25.666-21.37-40.693-28.576c-0.591,19.392-1.591,41.171-15.686,56.107
		c-9.253,9.298-19.369,20.028-33.237,21.301c-13.504,1.614-27.326,1.955-40.807-0.182c-21.62-4.024-38.579-20.597-49.991-38.534
		c-11.162-24.007-16.937-52.401-8.116-78.09C-55.67,265.395-36.96,242.889-12.658,230.522z"/>
	<path fill="#FDFEFE" stroke="#FDFEFE" stroke-width="0.2131" d="M968.571,227.316c18.141-4.206,38.511,1.773,50.81,15.936
		c17.71,18.732,18.892,50.923,1.273,70.111c-17.869,22.938-55.584,25.03-76.203,4.774c-15.436-13.39-20.71-35.828-14.982-55.106
		C935.607,245.663,950.134,230.908,968.571,227.316z"/>
	<path fill="#BE5B9E" stroke="#BE5B9E" stroke-width="0.4845" d="M802.843,427.577c18.528-19.778,32.509-43.444,42.353-68.633
		c11.776-35.237,18.164-73.043,12.367-110.076c-4.16-24.439-9.139-49.105-19.869-71.634c-8.275-20.597-21.324-38.784-34.783-56.266
		c-9.889-12.822-22.438-23.234-35.396-32.805c-42.353-32.918-98.096-46.49-151.088-40.466c-27.69,1.205-54.402,9.844-79.795,20.438
		c-14.322,6.229-27.326,15.072-41.944,20.597c4.615,27.871,6.207,56.607,0.136,84.387c-3.455,25.985-15.231,49.9-29.394,71.611
		c-17.869,25.689-40.602,48.809-68.496,63.495c-13.299,7.911-28.144,12.594-42.626,17.778
		c8.298,42.284,13.776,85.024,21.256,127.445c16.141,103.12,48.195,206.217,110.031,291.513c8.048,2.842,15.777,6.547,23.097,10.98
		c15.482,9.389,32.759,15.3,49.923,20.869c43.012,13.754,89.48,17.209,133.924,8.821c43.49-9.571,86.001-30.031,115.237-64.427
		c17.437-21.483,29.781-48.218,30.372-76.226c1.159-29.099-11.162-56.72-25.53-81.318c-18.687-26.78-46.808-46.49-77.794-56.402
		c-10.003-2.728-20.142-5.07-29.668-9.253C740.825,479.455,776.176,458.29,802.843,427.577z M741.667,600.398
		c8.32,22.438,11.685,47.65,4.706,70.883c-3.91,10.594-8.366,21.256-15.322,30.236c-19.506,22.529-49.423,35.692-79.204,34.532
		c-9.73-0.023-19.574-0.023-29.031-2.569c-16.868-4.41-34.237-8.002-49.423-16.982c-36.351-17.823-65.928-48.604-82.705-85.41
		c-3.66-9.185-11.026-18.414-8.912-28.713c3.842-1.205,5.252,2.682,6.979,5.274c12.572,23.006,32.941,41.08,55.606,53.856
		c10.981,6.388,23.188,10.207,34.896,14.981c14.981,6.479,31.645,5.388,47.581,6.024c13.799,0.159,29.554-0.909,39.807-11.321
		c5.888-5.774,7.252-14.117,7.366-22.006c-4.683,3.66-8.707,9.253-15.163,9.548c-10.662,1.25-21.506,1.023-32.123-0.5
		c-6.706-1-11.185-6.752-15.572-11.344c-9.98-10.912-14.436-25.985-13.163-40.602c0.114-18.028,11.276-33.941,24.711-45.013
		c18.801-12.276,43.103-15.277,64.541-8.934C711.385,559.046,731.755,577.505,741.667,600.398z M776.063,325.73
		c-2.478,12.412-9.003,23.484-16.414,33.555c-13.572,18.983-34.85,30.827-56.243,38.965c-12.572,1.932-25.302,3.228-37.965,4.433
		c-24.143-2.592-50.128-11.662-64.336-32.577c-5.638-7.866-13.094-15.413-13.958-25.553c-1.432-15.209-1.364-32.077,8.48-44.717
		c6.411-7.911,14.231-16.232,24.711-18.096c5.342-1.046,10.457-2.887,15.436-5.115c-4.115-1.887-8.366-3.387-12.708-4.592
		c-11.39,0.068-22.893-0.387-34.146,1.364c-25.712,8.321-51.128,20.847-68.997,41.694c-5.956,7.616-13.299,14.277-17.596,23.075
		c-11.799,22.779-21.392,46.695-29.031,71.156c-3.274,22.756-10.071,44.808-13.367,67.587c-0.91,10.548-0.705,21.165-1.569,31.736
		c-0.205,4.774-0.409,9.571-0.659,14.368c-7.753-0.909-8.139-8.298-7.98-14.595c-1.523-9.935-4.752-19.551-5.956-29.531
		c-2.342-22.665-5.524-45.331-4.387-68.178c-2.342-57.243,13.572-114.305,41.398-164.091c2.705-5.433,7.161-9.616,11.867-13.277
		c11.162-25.621,33.055-44.603,55.106-60.812c22.825-17.596,50.355-29.008,78.954-32.418c12.958-0.477,25.985-0.909,38.92,0.296
		c29.622,4.933,58.357,19.074,78.158,41.989c11.663,12.822,19.255,28.644,25.962,44.444c6.502,15.436,8.389,32.214,11.026,48.627
		C783.815,292.335,779.518,309.271,776.063,325.73z"/>
	<path fill="#FFE41B" stroke="#FFE41B" stroke-width="0.2131" d="M322.276,333.505c10.776-2.023,21.552-4.206,32.032-7.502
		c8.298,42.285,13.777,85.024,21.256,127.445c16.141,103.12,48.195,206.217,110.031,291.513
		c28.485,39.852,60.131,78.09,98.823,108.439c14.299,13.708,30.054,25.871,46.627,36.715c12.481,12.958,27.03,23.552,41.307,34.442
		c12.503,10.594,24.484,21.938,35.26,34.328c14.595,18.983,29.099,40.079,29.304,65.041c-4.797,5.661-9.048,11.776-12.844,18.141
		c-17.596,29.918-51.173,49.378-85.774,50.582c-29.236,1.523-57.698-8.161-83.432-21.256c-14.049-7.57-28.258-15.277-40.057-26.167
		c11.685-6.252,24.552-10.207,35.692-17.527c19.324-12.913,35.51-30.236,47.786-49.923c9.093-14.731,17.391-30.236,21.37-47.195
		c-11.48,9.093-20.028,21.188-31.213,30.6c-26.235,23.438-56.22,45.013-91.48,51.787c-8.616,1.455-19.119,4.047-26.235-2.773
		c-12.413-11.344-24.575-23.052-35.805-35.601c14.527-4.592,29.395-9.184,41.944-18.187c25.553-17.687,43.99-45.172,52.56-74.885
		c-20.71,20.415-41.489,41.807-67.883,54.856c-14.39,6.706-30.077,12.526-46.217,11.208c-6.093-0.159-9.684-5.661-13.072-9.935
		c-7.502-10.344-15.982-20.142-21.233-31.895c9.889-3.183,20.074-6.115,28.826-11.89c19.528-12.981,34.032-33.191,40.125-55.811
		c-9.866,7.639-18.232,17.027-28.099,24.689c-12.572,9.571-26.598,17.687-41.966,21.642c-5.547,1.273-13.504,2.842-16.232-3.751
		c-46.036-77.181-71.611-164.933-85.16-253.298c-8.389-60.471-13.572-121.511-12.708-182.597
		c1.728-36.146,2.546-72.384,6.365-108.394C288.881,335.642,305.772,336.665,322.276,333.505z"/>
	<path fill="#FCFDFE" stroke="#FCFDFE" stroke-width="0.2131" d="M886.821,366.128c15.118-2.955,32.123,4.047,39.284,18.005
		c7.525,14.004,4.82,32.873-7.252,43.512c-16.095,15.482-46.036,10.594-56.038-9.525
		C851.675,398.273,864.042,370.038,886.821,366.128z"/>
	<path fill="#FDFEFE" stroke="#FDFEFE" stroke-width="0.2131" d="M-199.915,381.951c9.957-2.751,20.642-2.796,30.69-0.546
		c22.87,5.638,40.011,28.508,38.965,52.083c0.182,27.553-24.416,52.719-52.196,52.083c-27.326,1.182-52.992-22.347-53.47-49.832
		C-238.13,412.414-222.399,388.657-199.915,381.951z"/>
	<path fill="#FBFCFD" stroke="#FBFCFD" stroke-width="0.2131" d="M-81.518,491.64c18.119-5.092,38.624,6.206,43.649,24.393
		c6.57,19.051-6.843,41.625-26.576,45.308c-18.255,4.615-38.374-7.616-42.557-25.985C-112.322,517.057-99.705,496.46-81.518,491.64z
		"/>
	<path fill="#92A9BB" stroke="#92A9BB" stroke-width="0.2131" d="M449.721,508.418c2.864,0.068,5.752,0.136,8.639,0.227
		c-0.205,4.774-0.409,9.571-0.659,14.368C449.949,522.104,449.562,514.715,449.721,508.418z"/>
	<path fill="#FCFDFD" stroke="#FCFDFD" stroke-width="0.2131" d="M873.09,533.834c23.961-7.752,51.014,13.231,49.696,38.306
		c0.864,20.869-18.232,39.602-39.034,38.329c-18.573,1.5-36.124-13.504-38.806-31.645
		C840.808,559.523,854.084,538.722,873.09,533.834z"/>
	<path fill="#D7DA45" stroke="#D7DA45" stroke-width="0.2131" d="M622.701,561.274c18.801-12.276,43.103-15.277,64.541-8.934
		c24.143,6.706,44.512,25.166,54.424,48.059c8.32,22.438,11.685,47.65,4.706,70.883c-3.91,10.594-8.366,21.256-15.322,30.236
		c-19.505,22.529-49.423,35.692-79.204,34.532c-9.73-0.023-19.574-0.023-29.031-2.569c-16.868-4.41-34.237-8.002-49.423-16.982
		c-36.351-17.823-65.928-48.604-82.705-85.41c-3.66-9.184-11.026-18.414-8.912-28.713c3.842-1.205,5.251,2.682,6.979,5.274
		c12.572,23.006,32.941,41.08,55.606,53.856c10.98,6.388,23.188,10.207,34.896,14.981c14.981,6.479,31.645,5.388,47.581,6.024
		c13.799,0.159,29.554-0.909,39.807-11.321c5.888-5.774,7.252-14.118,7.366-22.006c-4.683,3.66-8.707,9.253-15.163,9.548
		c-10.662,1.25-21.506,1.023-32.123-0.5c-6.706-1-11.185-6.752-15.573-11.344c-9.98-10.912-14.436-25.985-13.163-40.602
		C598.104,588.258,609.266,572.345,622.701,561.274z"/>
	<path fill="#FBFCFD" stroke="#FBFCFD" stroke-width="0.2131" d="M23.102,554.931c10.98-4.842,25.848-1.478,31.577,9.662
		c6.775,11.253,2.637,27.076-8.593,33.737c-10.003,4.956-23.961,4.001-31.168-5.297C4.983,581.438,8.53,560.932,23.102,554.931z"/>
	<path fill="#FDFEFE" stroke="#FDFEFE" stroke-width="0.2131" d="M900.552,643.933c17.869-4.57,37.715-0.091,51.833,11.799
		c14.095,10.708,21.893,28.417,21.711,45.945c0.728,19.801-10.639,39.056-27.076,49.65c-25.962,17.391-65.746,9.798-81.864-17.573
		c-16.505-23.938-11.162-59.585,11.594-77.635C883.57,650.23,891.731,645.888,900.552,643.933z"/>
	<path fill="#D7DA45" stroke="#D7DA45" stroke-width="0.2131" d="M183.465,659.005c7.138,0.364,14.936-0.637,21.301,3.365
		c22.506,12.822,42.671,31.1,54.402,54.492c7.82,13.322,12.958,28.394,13.731,43.876c-0.227,25.416-16.027,51.355-40.375,60.153
		c-11.208,3.001-23.393,3.751-34.691,0.932c-14.845-5.638-24.007-19.597-30.941-33.146c-4.592-8.411-2.523-18.482-0.682-27.349
		c3.615-13.799,15.163-28.531,31.031-26.371c15.118-0.841,24.189,12.458,33.873,21.733c6.343-9.98,4.729-22.779,0.887-33.373
		c-5.979-14.913-15.004-28.372-24.098-41.512C201.538,672.441,192.195,665.917,183.465,659.005z"/>
	<path fill="#F9FCFD" stroke="#F9FCFD" stroke-width="0.2131" d="M79.686,683.717c13.64-4.183,29.508,6.115,30.827,20.415
		c2.41,14.186-10.526,28.212-24.757,27.576c-14.118,0.455-26.303-13.868-23.779-27.758
		C62.749,694.243,70.251,685.854,79.686,683.717z"/>
	<path fill="#FCFDFE" stroke="#FCFDFE" stroke-width="0.2131" d="M57.157,775.402c21.233-8.821,47.536,7.957,48.377,30.918
		c2.66,22.984-21.461,44.103-43.944,37.579c-17.528-3.842-30.122-21.915-27.303-39.693
		C36.106,791.656,44.926,779.516,57.157,775.402z"/>
	<path fill="#FCFDFE" stroke="#FCFDFE" stroke-width="0.2131" d="M818.597,779.767c24.348-6.752,51.787,9.025,58.562,33.259
		c3.478,14.368,1.887,30.85-7.548,42.739c-7.388,10.185-18.937,17.05-31.35,18.982c-26.348,5.115-54.924-16.255-56.016-43.398
		C778.859,808.206,796.091,784.791,818.597,779.767z"/>
	<path fill="#FAFCFD" stroke="#FAFCFD" stroke-width="0.2131" d="M693.812,812.253c14.572-3.456,30.509,3.751,37.056,17.3
		c10.889,19.074-3.251,46.377-25.053,48.423c-15.163,2.364-30.895-7.093-35.987-21.506
		C662.235,838.51,674.489,815.549,693.812,812.253z"/>
	<path fill="#FCFDFE" stroke="#FCFDFE" stroke-width="0.2131" d="M122.857,859.448c12.754-2.933,27.235-2.046,38.215,5.706
		c10.389,7.161,19.301,17.846,21.438,30.599c1.66,11.458,1.205,23.939-5.138,34.01c-8.616,15.459-26.212,25.098-43.876,24.166
		c-24.052-0.159-45.285-21.37-46.149-45.285C85.642,886.569,101.556,864.995,122.857,859.448z"/>
	<path fill="#A6CD34" stroke="#A6CD34" stroke-width="0.2131" d="M1206.751,149.363c-3.41-9.366-9.776-17.164-16.778-24.075
		c12.64-11.094,19.824-27.531,18.755-44.422c-2.955-14.027-10.276-27.417-22.052-35.965c-2.273-1.773-4.592-3.455-6.888-5.16
		c4.41-7.775,9.776-15.436,10.89-24.507c2.182-14.413-2.342-29.554-11.844-40.534c-6.934-7.502-16.459-11.64-25.121-16.709
		c1.796-5.683,3.615-11.367,5.774-16.914c0.068-15.982-4.342-33.077-17.096-43.671c-8.73-8.366-20.96-10.298-31.873-14.254
		c-1.455-9.412,0.705-19.278-2.796-28.372c-4.115-12.299-13.595-21.983-24.552-28.531c-11.049-4.069-22.938-4.251-34.532-4.706
		c-1.91-14.959-8.707-29.69-20.96-38.92c-9.753-6.843-21.574-9.957-33.237-11.435c-0.909,0.409-2.705,1.205-3.615,1.614
		c-5.638,2.546-11.594,4.274-17.55,5.82c-2.637-5.138-5.183-10.344-8.093-15.322c-0.659-1.046-1.978-3.115-2.637-4.16
		c-3.001-3.183-6.138-6.229-9.548-8.957c-1.932-1.455-3.887-2.842-5.888-4.137c-1.341-0.568-3.978-1.751-5.297-2.319
		c-13.549-0.25-27.485-0.205-40.193,5.115c-0.887,0.318-2.683,0.978-3.569,1.318c-3.91,1.5-8.048,3.615-12.14,1.523
		c-0.727-0.978-2.205-2.978-2.933-3.978c-0.636-0.818-1.887-2.501-2.523-3.342c-11.39-8.73-25.416-15.322-40.125-13.504
		c-12.799,0.205-22.37,9.571-32.168,16.505c-2.069,1.523-4.138,3.024-6.161,4.524c-9.844-6.706-20.188-13.14-32.077-15.322
		c-3.705-0.114-7.366-0.046-11.048,0c-14.391,4.274-27.553,12.754-35.396,25.803c-1.046,1.523-3.137,4.547-4.183,6.07
		c-12.503-4.615-25.712-9.525-39.261-6.684c-12.822,1.546-23.097,10.185-31.509,19.346c-2.614,6.365-5.32,12.663-7.957,19.005
		c-15.231-1.273-32.009-4.819-46.058,3.16c-15.277,8.684-23.893,25.53-25.984,42.557c-6.252-0.5-12.481-1.091-18.733-1.25
		c-16.164,2.524-31.782,11.935-39.42,26.735c-5.07,9.639-5.479,20.733-6.57,31.35c-9.344,0.705-19.437-0.114-27.803,4.842
		c-4.41,2.455-8.525,5.388-12.344,8.684c-0.841,0.955-2.523,2.887-3.387,3.842c-1.728,2.137-3.41,4.319-4.956,6.593
		c-6.161,12.526-5.979,26.667-5.615,40.284c-7.525,1.932-14.982,4.16-22.325,6.638c10.207,10.798,21.142,21.165,28.985,33.941
		l1,1.432c8.821-14.3,17.255-29.008,28.485-41.603c16.8-18.801,31.373-39.67,50.287-56.516
		c23.666-20.483,47.286-41.261,73.52-58.471c15.846-10.617,31.85-21.37,49.878-28.03c16.391-7.775,32.282-16.868,49.764-22.143
		c20.892-5.911,41.057-15.232,62.972-16.755c14.55-0.841,28.713-5.047,43.353-5.024c21.142-0.25,42.375-0.477,63.472,1.341
		c15.55,2.796,31.35,4.615,46.377,9.707c15.186,5.093,31.122,8.389,45.24,16.277c15.55,6.684,29.713,16.027,44.808,23.643
		c9.707,4.956,16.164,14.14,24.78,20.574c11.003,8.57,22.461,16.823,30.94,28.099c11.458,15.027,26.075,28.076,33.669,45.717
		c4.661,10.685,12.89,19.301,17.482,30.008c5.774,12.776,9.616,26.303,15.754,38.92c5.252,10.798,8.525,22.438,10.935,34.169
		c5.001,23.984,11.026,48.036,10.753,72.702c-0.091,19.71,0.728,39.443,0.091,59.153c-1.046,13.731-3.41,27.326-4.706,41.034
		c-3.546,21.256-10.275,41.807-17.914,61.904c-5.638,20.71-17.528,38.715-27.167,57.63c-11.322,21.029-27.417,38.875-43.217,56.561
		c-20.051,22.893-46.081,39.102-70.088,57.38c-10.662,8.411-23.893,12.299-35.714,18.687c-19.165,10.253-39.784,17.414-60.472,23.87
		c-10.73,3.683-21.506,7.32-32.691,9.344c0.25,1.887,0.5,3.796,0.795,5.706c12.003,1.819,22.188,8.662,33.532,12.481
		c-0.204,0.728-0.25,1.501-0.181,2.273c21.278,12.39,41.125,27.121,59.244,43.785c8.525,8.525,13.913,19.46,20.87,29.19
		c16.277,20.869,24.688,46.627,30.008,72.247c8.025,25.325,7.297,52.196,6.57,78.431c-1.432,17.323-3.819,35.305-12.503,50.673
		c-8.934,15.618-14.663,33.441-28.167,46.013c-16.55,19.937-35.942,38.192-59.699,49.105l-6.346,4.794l-6.681,3.504
		c-17.05,9.798-36.147,15.959-54.856,21.779c-15.232,1.614-29.986,5.32-44.763,9.139c-23.734,1.955-47.604,0.659-71.383,0.978
		c1.046-1.159,2.114-2.296,3.182-3.433c-19.71,0.455-39.147-3.547-58.221-8.002c-16.527-3.91-31.623-12.322-48.309-15.641
		c12.481,12.958,27.03,23.552,41.307,34.442c12.503,10.594,24.484,21.938,35.26,34.328c8.548-5.024,16.686-10.98,25.962-14.686
		c5.229,3.456,9.185,8.389,13.64,12.731c4.388,2.41,8.934,4.569,13.686,6.229c11.458,0.841,22.961,0.659,34.464,0.568
		c3.16-1.728,6.229-3.706,9.025-6.002c4.933-5.388,9.798-10.821,15.095-15.845c8.866,5.229,17.982,10.435,28.213,12.367
		c11.844,0.455,24.098-1.341,34.442-7.457c5.32-5.115,10.435-10.435,15.55-15.732c1.068-1.728,2.114-3.456,3.16-5.183
		c1.25-2.523,2.478-5.047,3.705-7.548c3.16,1.046,6.343,2.114,9.548,3.115c0.978,0.136,2.933,0.409,3.888,0.546
		c8.434,0.614,16.914,0.409,25.371,0.5c2.66-1.91,5.32-3.819,7.98-5.752c9.685-6.82,16.8-16.505,22.802-26.576
		c0.864-7.343,1.432-14.732,2.364-22.052c1.705-0.091,5.115-0.273,6.82-0.364c3.819-0.273,7.684-0.5,11.526-0.75
		c16.664-5.479,32.85-17.028,37.556-34.76c4.251-11.958,0.136-24.37-2.092-36.26c-0.091-0.614-0.227-1.864-0.296-2.478
		c8.912-5.138,18.778-9.571,25.075-18.073c9.844-11.867,13.095-28.349,9.071-43.148c-2.683-10.23-10.866-17.505-15.777-26.553
		c3.797-10.139,12.481-17.778,15.527-28.349c5.547-15.004-2.205-30.509-9.776-43.239c-7.343-6.593-15.868-11.571-24.166-16.823
		c2.387-4.842,4.797-9.662,7.275-14.459c0.568-14.095,0.364-29.713-8.843-41.307c-7.866-10.912-20.801-16.3-33.419-19.437
		c-2.955-0.773-5.888-1.523-8.798-2.228c-0.91-9.616-1.159-19.619-5.456-28.463c-2.387-5.547-5.979-10.617-7.366-16.55
		c0.273-6.865,3.774-13.072,6.07-19.392c6.661,1.955,13.276,4.115,19.847,6.456c9.957-1.978,19.983-4.228,29.326-8.366
		c3.342-2.683,6.434-5.706,9.548-8.684c8.548-9.616,12.049-22.188,13.186-34.737c11.026,0.455,22.302,0,32.623-4.319
		c8.98-4.433,17.459-10.753,22.21-19.778c6.888-11.549,7.343-25.325,5.797-38.329c7.207-1.614,14.458-3.205,21.642-5.047
		c10.912-7.047,21.415-16.209,25.371-29.054c5.183-13.299,1.318-27.53-2.433-40.625c15.664-6.752,31.168-17.891,35.419-35.396
		c5.138-16.391-1.341-33.123-10.253-46.831c7.07-5.615,14.618-11.071,19.687-18.687
		C1209.343,179.462,1210.911,163.549,1206.751,149.363z"/>
	<path fill="#FCFDFE" stroke="#FCFDFE" stroke-width="0.2131" d="M241.436,880.431c16.937-4.115,35.51,8.548,37.192,26.007
		c2.001,12.481-4.592,25.393-15.436,31.645c-13.936,7.116-33.373,3.251-41.421-10.821
		C209.904,910.326,221.021,883.841,241.436,880.431z"/>
	<path fill="#66554D" stroke="#66554D" stroke-width="0.2131" d="M-471.195,1152.121l1.819-0.841
		c0.591,0.705,1.75,2.114,2.319,2.819h-4.138V1152.121z"/>
</g>
</svg>
